<svg xmlns="http://www.w3.org/2000/svg" version="1.1" viewBox="0 0 1900 1000"><g transform="rotate(-90) translate(-1000 0)"><g><rect width="1000" height="1900" x="0" y="0" fill="#ffffff"></rect><rect width="22.2" height="1900" x="0.0" y="0" fill="#ff0000"></rect><rect width="11.1" height="1900" x="33.3" y="0" fill="#ff0000"></rect><rect width="11.1" height="1900" x="66.7" y="0" fill="#ff0000"></rect><rect width="22.2" height="1900" x="122.2" y="0" fill="#ff0000"></rect><rect width="33.3" height="1900" x="155.6" y="0" fill="#ff0000"></rect><rect width="11.1" height="1900" x="200.0" y="0" fill="#ff0000"></rect><rect width="11.1" height="1900" x="244.4" y="0" fill="#ff0000"></rect><rect width="22.2" height="1900" x="288.9" y="0" fill="#ff0000"></rect><rect width="11.1" height="1900" x="322.2" y="0" fill="#ff0000"></rect><rect width="11.1" height="1900" x="366.7" y="0" fill="#ff0000"></rect><rect width="22.2" height="1900" x="400.0" y="0" fill="#ff0000"></rect><rect width="11.1" height="1900" x="466.7" y="0" fill="#ff0000"></rect><rect width="22.2" height="1900" x="488.9" y="0" fill="#ff0000"></rect><rect width="22.2" height="1900" x="522.2" y="0" fill="#ff0000"></rect><rect width="44.4" height="1900" x="555.6" y="0" fill="#ff0000"></rect><rect width="22.2" height="1900" x="611.1" y="0" fill="#ff0000"></rect><rect width="11.1" height="1900" x="644.4" y="0" fill="#ff0000"></rect><rect width="11.1" height="1900" x="688.9" y="0" fill="#ff0000"></rect><rect width="11.1" height="1900" x="733.3" y="0" fill="#ff0000"></rect><rect width="22.2" height="1900" x="755.6" y="0" fill="#ff0000"></rect><rect width="11.1" height="1900" x="800.0" y="0" fill="#ff0000"></rect><rect width="22.2" height="1900" x="855.6" y="0" fill="#ff0000"></rect><rect width="33.3" height="1900" x="911.1" y="0" fill="#ff0000"></rect><rect width="11.1" height="1900" x="955.6" y="0" fill="#ff0000"></rect><rect width="22.2" height="1900" x="977.8" y="0.0" fill="#ff0000"></rect></g><g transform="rotate(90 950 500) translate(450 450)"><rect x="0" y="0" width="760" height="538" fill="#0000ff"></rect><rect x="65.14285714285714" y="46.114285714285714" width="21.714285714285715" height="15.371428571428572" fill="#ffffff"></rect><rect x="86.85714285714286" y="46.114285714285714" width="21.714285714285715" height="15.371428571428572" fill="#ffffff"></rect><rect x="108.57142857142857" y="46.114285714285714" width="21.714285714285715" height="15.371428571428572" fill="#ffffff"></rect><rect x="130.28571428571428" y="46.114285714285714" width="21.714285714285715" height="15.371428571428572" fill="#ffffff"></rect><rect x="152" y="46.114285714285714" width="21.714285714285715" height="15.371428571428572" fill="#ffffff"></rect><rect x="173.71428571428572" y="46.114285714285714" width="21.714285714285715" height="15.371428571428572" fill="#ffffff"></rect><rect x="195.42857142857142" y="46.114285714285714" width="21.714285714285715" height="15.371428571428572" fill="#ffffff"></rect><rect x="325.71428571428567" y="46.114285714285714" width="21.714285714285715" height="15.371428571428572" fill="#ffffff"></rect><rect x="347.42857142857144" y="46.114285714285714" width="21.714285714285715" height="15.371428571428572" fill="#ffffff"></rect><rect x="390.8571428571429" y="46.114285714285714" width="21.714285714285715" height="15.371428571428572" fill="#ffffff"></rect><rect x="434.28571428571433" y="46.114285714285714" width="21.714285714285715" height="15.371428571428572" fill="#ffffff"></rect><rect x="456" y="46.114285714285714" width="21.714285714285715" height="15.371428571428572" fill="#ffffff"></rect><rect x="477.7142857142858" y="46.114285714285714" width="21.714285714285715" height="15.371428571428572" fill="#ffffff"></rect><rect x="499.42857142857144" y="46.114285714285714" width="21.714285714285715" height="15.371428571428572" fill="#ffffff"></rect><rect x="542.8571428571429" y="46.114285714285714" width="21.714285714285715" height="15.371428571428572" fill="#ffffff"></rect><rect x="564.5714285714286" y="46.114285714285714" width="21.714285714285715" height="15.371428571428572" fill="#ffffff"></rect><rect x="586.2857142857142" y="46.114285714285714" width="21.714285714285715" height="15.371428571428572" fill="#ffffff"></rect><rect x="608" y="46.114285714285714" width="21.714285714285715" height="15.371428571428572" fill="#ffffff"></rect><rect x="629.7142857142857" y="46.114285714285714" width="21.714285714285715" height="15.371428571428572" fill="#ffffff"></rect><rect x="651.4285714285714" y="46.114285714285714" width="21.714285714285715" height="15.371428571428572" fill="#ffffff"></rect><rect x="673.1428571428571" y="46.114285714285714" width="21.714285714285715" height="15.371428571428572" fill="#ffffff"></rect><rect x="65.14285714285714" y="61.48571428571429" width="21.714285714285715" height="15.371428571428572" fill="#ffffff"></rect><rect x="195.42857142857142" y="61.48571428571429" width="21.714285714285715" height="15.371428571428572" fill="#ffffff"></rect><rect x="282.28571428571433" y="61.48571428571429" width="21.714285714285715" height="15.371428571428572" fill="#ffffff"></rect><rect x="456" y="61.48571428571429" width="21.714285714285715" height="15.371428571428572" fill="#ffffff"></rect><rect x="477.7142857142858" y="61.48571428571429" width="21.714285714285715" height="15.371428571428572" fill="#ffffff"></rect><rect x="499.42857142857144" y="61.48571428571429" width="21.714285714285715" height="15.371428571428572" fill="#ffffff"></rect><rect x="542.8571428571429" y="61.48571428571429" width="21.714285714285715" height="15.371428571428572" fill="#ffffff"></rect><rect x="673.1428571428571" y="61.48571428571429" width="21.714285714285715" height="15.371428571428572" fill="#ffffff"></rect><rect x="65.14285714285714" y="76.85714285714286" width="21.714285714285715" height="15.371428571428572" fill="#ffffff"></rect><rect x="108.57142857142857" y="76.85714285714286" width="21.714285714285715" height="15.371428571428572" fill="#ffffff"></rect><rect x="130.28571428571428" y="76.85714285714286" width="21.714285714285715" height="15.371428571428572" fill="#ffffff"></rect><rect x="152" y="76.85714285714286" width="21.714285714285715" height="15.371428571428572" fill="#ffffff"></rect><rect x="195.42857142857142" y="76.85714285714286" width="21.714285714285715" height="15.371428571428572" fill="#ffffff"></rect><rect x="325.71428571428567" y="76.85714285714286" width="21.714285714285715" height="15.371428571428572" fill="#ffffff"></rect><rect x="347.42857142857144" y="76.85714285714286" width="21.714285714285715" height="15.371428571428572" fill="#ffffff"></rect><rect x="477.7142857142858" y="76.85714285714286" width="21.714285714285715" height="15.371428571428572" fill="#ffffff"></rect><rect x="542.8571428571429" y="76.85714285714286" width="21.714285714285715" height="15.371428571428572" fill="#ffffff"></rect><rect x="586.2857142857142" y="76.85714285714286" width="21.714285714285715" height="15.371428571428572" fill="#ffffff"></rect><rect x="608" y="76.85714285714286" width="21.714285714285715" height="15.371428571428572" fill="#ffffff"></rect><rect x="629.7142857142857" y="76.85714285714286" width="21.714285714285715" height="15.371428571428572" fill="#ffffff"></rect><rect x="673.1428571428571" y="76.85714285714286" width="21.714285714285715" height="15.371428571428572" fill="#ffffff"></rect><rect x="65.14285714285714" y="92.22857142857143" width="21.714285714285715" height="15.371428571428572" fill="#ffffff"></rect><rect x="108.57142857142857" y="92.22857142857143" width="21.714285714285715" height="15.371428571428572" fill="#ffffff"></rect><rect x="130.28571428571428" y="92.22857142857143" width="21.714285714285715" height="15.371428571428572" fill="#ffffff"></rect><rect x="152" y="92.22857142857143" width="21.714285714285715" height="15.371428571428572" fill="#ffffff"></rect><rect x="195.42857142857142" y="92.22857142857143" width="21.714285714285715" height="15.371428571428572" fill="#ffffff"></rect><rect x="238.85714285714286" y="92.22857142857143" width="21.714285714285715" height="15.371428571428572" fill="#ffffff"></rect><rect x="282.28571428571433" y="92.22857142857143" width="21.714285714285715" height="15.371428571428572" fill="#ffffff"></rect><rect x="347.42857142857144" y="92.22857142857143" width="21.714285714285715" height="15.371428571428572" fill="#ffffff"></rect><rect x="390.8571428571429" y="92.22857142857143" width="21.714285714285715" height="15.371428571428572" fill="#ffffff"></rect><rect x="434.28571428571433" y="92.22857142857143" width="21.714285714285715" height="15.371428571428572" fill="#ffffff"></rect><rect x="456" y="92.22857142857143" width="21.714285714285715" height="15.371428571428572" fill="#ffffff"></rect><rect x="542.8571428571429" y="92.22857142857143" width="21.714285714285715" height="15.371428571428572" fill="#ffffff"></rect><rect x="586.2857142857142" y="92.22857142857143" width="21.714285714285715" height="15.371428571428572" fill="#ffffff"></rect><rect x="608" y="92.22857142857143" width="21.714285714285715" height="15.371428571428572" fill="#ffffff"></rect><rect x="629.7142857142857" y="92.22857142857143" width="21.714285714285715" height="15.371428571428572" fill="#ffffff"></rect><rect x="673.1428571428571" y="92.22857142857143" width="21.714285714285715" height="15.371428571428572" fill="#ffffff"></rect><rect x="65.14285714285714" y="107.6" width="21.714285714285715" height="15.371428571428572" fill="#ffffff"></rect><rect x="108.57142857142857" y="107.6" width="21.714285714285715" height="15.371428571428572" fill="#ffffff"></rect><rect x="130.28571428571428" y="107.6" width="21.714285714285715" height="15.371428571428572" fill="#ffffff"></rect><rect x="152" y="107.6" width="21.714285714285715" height="15.371428571428572" fill="#ffffff"></rect><rect x="195.42857142857142" y="107.6" width="21.714285714285715" height="15.371428571428572" fill="#ffffff"></rect><rect x="238.85714285714286" y="107.6" width="21.714285714285715" height="15.371428571428572" fill="#ffffff"></rect><rect x="260.57142857142856" y="107.6" width="21.714285714285715" height="15.371428571428572" fill="#ffffff"></rect><rect x="304" y="107.6" width="21.714285714285715" height="15.371428571428572" fill="#ffffff"></rect><rect x="325.71428571428567" y="107.6" width="21.714285714285715" height="15.371428571428572" fill="#ffffff"></rect><rect x="434.28571428571433" y="107.6" width="21.714285714285715" height="15.371428571428572" fill="#ffffff"></rect><rect x="456" y="107.6" width="21.714285714285715" height="15.371428571428572" fill="#ffffff"></rect><rect x="499.42857142857144" y="107.6" width="21.714285714285715" height="15.371428571428572" fill="#ffffff"></rect><rect x="542.8571428571429" y="107.6" width="21.714285714285715" height="15.371428571428572" fill="#ffffff"></rect><rect x="586.2857142857142" y="107.6" width="21.714285714285715" height="15.371428571428572" fill="#ffffff"></rect><rect x="608" y="107.6" width="21.714285714285715" height="15.371428571428572" fill="#ffffff"></rect><rect x="629.7142857142857" y="107.6" width="21.714285714285715" height="15.371428571428572" fill="#ffffff"></rect><rect x="673.1428571428571" y="107.6" width="21.714285714285715" height="15.371428571428572" fill="#ffffff"></rect><rect x="65.14285714285714" y="122.97142857142858" width="21.714285714285715" height="15.371428571428572" fill="#ffffff"></rect><rect x="195.42857142857142" y="122.97142857142858" width="21.714285714285715" height="15.371428571428572" fill="#ffffff"></rect><rect x="260.57142857142856" y="122.97142857142858" width="21.714285714285715" height="15.371428571428572" fill="#ffffff"></rect><rect x="304" y="122.97142857142858" width="21.714285714285715" height="15.371428571428572" fill="#ffffff"></rect><rect x="325.71428571428567" y="122.97142857142858" width="21.714285714285715" height="15.371428571428572" fill="#ffffff"></rect><rect x="347.42857142857144" y="122.97142857142858" width="21.714285714285715" height="15.371428571428572" fill="#ffffff"></rect><rect x="369.1428571428571" y="122.97142857142858" width="21.714285714285715" height="15.371428571428572" fill="#ffffff"></rect><rect x="412.57142857142856" y="122.97142857142858" width="21.714285714285715" height="15.371428571428572" fill="#ffffff"></rect><rect x="434.28571428571433" y="122.97142857142858" width="21.714285714285715" height="15.371428571428572" fill="#ffffff"></rect><rect x="499.42857142857144" y="122.97142857142858" width="21.714285714285715" height="15.371428571428572" fill="#ffffff"></rect><rect x="542.8571428571429" y="122.97142857142858" width="21.714285714285715" height="15.371428571428572" fill="#ffffff"></rect><rect x="673.1428571428571" y="122.97142857142858" width="21.714285714285715" height="15.371428571428572" fill="#ffffff"></rect><rect x="65.14285714285714" y="138.34285714285716" width="21.714285714285715" height="15.371428571428572" fill="#ffffff"></rect><rect x="86.85714285714286" y="138.34285714285716" width="21.714285714285715" height="15.371428571428572" fill="#ffffff"></rect><rect x="108.57142857142857" y="138.34285714285716" width="21.714285714285715" height="15.371428571428572" fill="#ffffff"></rect><rect x="130.28571428571428" y="138.34285714285716" width="21.714285714285715" height="15.371428571428572" fill="#ffffff"></rect><rect x="152" y="138.34285714285716" width="21.714285714285715" height="15.371428571428572" fill="#ffffff"></rect><rect x="173.71428571428572" y="138.34285714285716" width="21.714285714285715" height="15.371428571428572" fill="#ffffff"></rect><rect x="195.42857142857142" y="138.34285714285716" width="21.714285714285715" height="15.371428571428572" fill="#ffffff"></rect><rect x="238.85714285714286" y="138.34285714285716" width="21.714285714285715" height="15.371428571428572" fill="#ffffff"></rect><rect x="282.28571428571433" y="138.34285714285716" width="21.714285714285715" height="15.371428571428572" fill="#ffffff"></rect><rect x="325.71428571428567" y="138.34285714285716" width="21.714285714285715" height="15.371428571428572" fill="#ffffff"></rect><rect x="369.1428571428571" y="138.34285714285716" width="21.714285714285715" height="15.371428571428572" fill="#ffffff"></rect><rect x="412.57142857142856" y="138.34285714285716" width="21.714285714285715" height="15.371428571428572" fill="#ffffff"></rect><rect x="456" y="138.34285714285716" width="21.714285714285715" height="15.371428571428572" fill="#ffffff"></rect><rect x="499.42857142857144" y="138.34285714285716" width="21.714285714285715" height="15.371428571428572" fill="#ffffff"></rect><rect x="542.8571428571429" y="138.34285714285716" width="21.714285714285715" height="15.371428571428572" fill="#ffffff"></rect><rect x="564.5714285714286" y="138.34285714285716" width="21.714285714285715" height="15.371428571428572" fill="#ffffff"></rect><rect x="586.2857142857142" y="138.34285714285716" width="21.714285714285715" height="15.371428571428572" fill="#ffffff"></rect><rect x="608" y="138.34285714285716" width="21.714285714285715" height="15.371428571428572" fill="#ffffff"></rect><rect x="629.7142857142857" y="138.34285714285716" width="21.714285714285715" height="15.371428571428572" fill="#ffffff"></rect><rect x="651.4285714285714" y="138.34285714285716" width="21.714285714285715" height="15.371428571428572" fill="#ffffff"></rect><rect x="673.1428571428571" y="138.34285714285716" width="21.714285714285715" height="15.371428571428572" fill="#ffffff"></rect><rect x="238.85714285714286" y="153.71428571428572" width="21.714285714285715" height="15.371428571428572" fill="#ffffff"></rect><rect x="260.57142857142856" y="153.71428571428572" width="21.714285714285715" height="15.371428571428572" fill="#ffffff"></rect><rect x="282.28571428571433" y="153.71428571428572" width="21.714285714285715" height="15.371428571428572" fill="#ffffff"></rect><rect x="304" y="153.71428571428572" width="21.714285714285715" height="15.371428571428572" fill="#ffffff"></rect><rect x="347.42857142857144" y="153.71428571428572" width="21.714285714285715" height="15.371428571428572" fill="#ffffff"></rect><rect x="108.57142857142857" y="169.0857142857143" width="21.714285714285715" height="15.371428571428572" fill="#ffffff"></rect><rect x="130.28571428571428" y="169.0857142857143" width="21.714285714285715" height="15.371428571428572" fill="#ffffff"></rect><rect x="195.42857142857142" y="169.0857142857143" width="21.714285714285715" height="15.371428571428572" fill="#ffffff"></rect><rect x="260.57142857142856" y="169.0857142857143" width="21.714285714285715" height="15.371428571428572" fill="#ffffff"></rect><rect x="282.28571428571433" y="169.0857142857143" width="21.714285714285715" height="15.371428571428572" fill="#ffffff"></rect><rect x="304" y="169.0857142857143" width="21.714285714285715" height="15.371428571428572" fill="#ffffff"></rect><rect x="369.1428571428571" y="169.0857142857143" width="21.714285714285715" height="15.371428571428572" fill="#ffffff"></rect><rect x="390.8571428571429" y="169.0857142857143" width="21.714285714285715" height="15.371428571428572" fill="#ffffff"></rect><rect x="456" y="169.0857142857143" width="21.714285714285715" height="15.371428571428572" fill="#ffffff"></rect><rect x="499.42857142857144" y="169.0857142857143" width="21.714285714285715" height="15.371428571428572" fill="#ffffff"></rect><rect x="521.1428571428571" y="169.0857142857143" width="21.714285714285715" height="15.371428571428572" fill="#ffffff"></rect><rect x="542.8571428571429" y="169.0857142857143" width="21.714285714285715" height="15.371428571428572" fill="#ffffff"></rect><rect x="586.2857142857142" y="169.0857142857143" width="21.714285714285715" height="15.371428571428572" fill="#ffffff"></rect><rect x="608" y="169.0857142857143" width="21.714285714285715" height="15.371428571428572" fill="#ffffff"></rect><rect x="65.14285714285714" y="184.45714285714286" width="21.714285714285715" height="15.371428571428572" fill="#ffffff"></rect><rect x="108.57142857142857" y="184.45714285714286" width="21.714285714285715" height="15.371428571428572" fill="#ffffff"></rect><rect x="130.28571428571428" y="184.45714285714286" width="21.714285714285715" height="15.371428571428572" fill="#ffffff"></rect><rect x="238.85714285714286" y="184.45714285714286" width="21.714285714285715" height="15.371428571428572" fill="#ffffff"></rect><rect x="260.57142857142856" y="184.45714285714286" width="21.714285714285715" height="15.371428571428572" fill="#ffffff"></rect><rect x="282.28571428571433" y="184.45714285714286" width="21.714285714285715" height="15.371428571428572" fill="#ffffff"></rect><rect x="347.42857142857144" y="184.45714285714286" width="21.714285714285715" height="15.371428571428572" fill="#ffffff"></rect><rect x="390.8571428571429" y="184.45714285714286" width="21.714285714285715" height="15.371428571428572" fill="#ffffff"></rect><rect x="412.57142857142856" y="184.45714285714286" width="21.714285714285715" height="15.371428571428572" fill="#ffffff"></rect><rect x="434.28571428571433" y="184.45714285714286" width="21.714285714285715" height="15.371428571428572" fill="#ffffff"></rect><rect x="499.42857142857144" y="184.45714285714286" width="21.714285714285715" height="15.371428571428572" fill="#ffffff"></rect><rect x="521.1428571428571" y="184.45714285714286" width="21.714285714285715" height="15.371428571428572" fill="#ffffff"></rect><rect x="608" y="184.45714285714286" width="21.714285714285715" height="15.371428571428572" fill="#ffffff"></rect><rect x="629.7142857142857" y="184.45714285714286" width="21.714285714285715" height="15.371428571428572" fill="#ffffff"></rect><rect x="651.4285714285714" y="184.45714285714286" width="21.714285714285715" height="15.371428571428572" fill="#ffffff"></rect><rect x="130.28571428571428" y="199.82857142857142" width="21.714285714285715" height="15.371428571428572" fill="#ffffff"></rect><rect x="173.71428571428572" y="199.82857142857142" width="21.714285714285715" height="15.371428571428572" fill="#ffffff"></rect><rect x="195.42857142857142" y="199.82857142857142" width="21.714285714285715" height="15.371428571428572" fill="#ffffff"></rect><rect x="238.85714285714286" y="199.82857142857142" width="21.714285714285715" height="15.371428571428572" fill="#ffffff"></rect><rect x="304" y="199.82857142857142" width="21.714285714285715" height="15.371428571428572" fill="#ffffff"></rect><rect x="325.71428571428567" y="199.82857142857142" width="21.714285714285715" height="15.371428571428572" fill="#ffffff"></rect><rect x="347.42857142857144" y="199.82857142857142" width="21.714285714285715" height="15.371428571428572" fill="#ffffff"></rect><rect x="369.1428571428571" y="199.82857142857142" width="21.714285714285715" height="15.371428571428572" fill="#ffffff"></rect><rect x="434.28571428571433" y="199.82857142857142" width="21.714285714285715" height="15.371428571428572" fill="#ffffff"></rect><rect x="477.7142857142858" y="199.82857142857142" width="21.714285714285715" height="15.371428571428572" fill="#ffffff"></rect><rect x="499.42857142857144" y="199.82857142857142" width="21.714285714285715" height="15.371428571428572" fill="#ffffff"></rect><rect x="521.1428571428571" y="199.82857142857142" width="21.714285714285715" height="15.371428571428572" fill="#ffffff"></rect><rect x="542.8571428571429" y="199.82857142857142" width="21.714285714285715" height="15.371428571428572" fill="#ffffff"></rect><rect x="564.5714285714286" y="199.82857142857142" width="21.714285714285715" height="15.371428571428572" fill="#ffffff"></rect><rect x="586.2857142857142" y="199.82857142857142" width="21.714285714285715" height="15.371428571428572" fill="#ffffff"></rect><rect x="608" y="199.82857142857142" width="21.714285714285715" height="15.371428571428572" fill="#ffffff"></rect><rect x="65.14285714285714" y="215.2" width="21.714285714285715" height="15.371428571428572" fill="#ffffff"></rect><rect x="130.28571428571428" y="215.2" width="21.714285714285715" height="15.371428571428572" fill="#ffffff"></rect><rect x="217.14285714285714" y="215.2" width="21.714285714285715" height="15.371428571428572" fill="#ffffff"></rect><rect x="238.85714285714286" y="215.2" width="21.714285714285715" height="15.371428571428572" fill="#ffffff"></rect><rect x="304" y="215.2" width="21.714285714285715" height="15.371428571428572" fill="#ffffff"></rect><rect x="325.71428571428567" y="215.2" width="21.714285714285715" height="15.371428571428572" fill="#ffffff"></rect><rect x="369.1428571428571" y="215.2" width="21.714285714285715" height="15.371428571428572" fill="#ffffff"></rect><rect x="390.8571428571429" y="215.2" width="21.714285714285715" height="15.371428571428572" fill="#ffffff"></rect><rect x="412.57142857142856" y="215.2" width="21.714285714285715" height="15.371428571428572" fill="#ffffff"></rect><rect x="521.1428571428571" y="215.2" width="21.714285714285715" height="15.371428571428572" fill="#ffffff"></rect><rect x="542.8571428571429" y="215.2" width="21.714285714285715" height="15.371428571428572" fill="#ffffff"></rect><rect x="86.85714285714286" y="230.57142857142856" width="21.714285714285715" height="15.371428571428572" fill="#ffffff"></rect><rect x="108.57142857142857" y="230.57142857142856" width="21.714285714285715" height="15.371428571428572" fill="#ffffff"></rect><rect x="195.42857142857142" y="230.57142857142856" width="21.714285714285715" height="15.371428571428572" fill="#ffffff"></rect><rect x="238.85714285714286" y="230.57142857142856" width="21.714285714285715" height="15.371428571428572" fill="#ffffff"></rect><rect x="282.28571428571433" y="230.57142857142856" width="21.714285714285715" height="15.371428571428572" fill="#ffffff"></rect><rect x="325.71428571428567" y="230.57142857142856" width="21.714285714285715" height="15.371428571428572" fill="#ffffff"></rect><rect x="347.42857142857144" y="230.57142857142856" width="21.714285714285715" height="15.371428571428572" fill="#ffffff"></rect><rect x="412.57142857142856" y="230.57142857142856" width="21.714285714285715" height="15.371428571428572" fill="#ffffff"></rect><rect x="434.28571428571433" y="230.57142857142856" width="21.714285714285715" height="15.371428571428572" fill="#ffffff"></rect><rect x="499.42857142857144" y="230.57142857142856" width="21.714285714285715" height="15.371428571428572" fill="#ffffff"></rect><rect x="542.8571428571429" y="230.57142857142856" width="21.714285714285715" height="15.371428571428572" fill="#ffffff"></rect><rect x="586.2857142857142" y="230.57142857142856" width="21.714285714285715" height="15.371428571428572" fill="#ffffff"></rect><rect x="608" y="230.57142857142856" width="21.714285714285715" height="15.371428571428572" fill="#ffffff"></rect><rect x="629.7142857142857" y="230.57142857142856" width="21.714285714285715" height="15.371428571428572" fill="#ffffff"></rect><rect x="108.57142857142857" y="245.94285714285712" width="21.714285714285715" height="15.371428571428572" fill="#ffffff"></rect><rect x="173.71428571428572" y="245.94285714285712" width="21.714285714285715" height="15.371428571428572" fill="#ffffff"></rect><rect x="238.85714285714286" y="245.94285714285712" width="21.714285714285715" height="15.371428571428572" fill="#ffffff"></rect><rect x="260.57142857142856" y="245.94285714285712" width="21.714285714285715" height="15.371428571428572" fill="#ffffff"></rect><rect x="282.28571428571433" y="245.94285714285712" width="21.714285714285715" height="15.371428571428572" fill="#ffffff"></rect><rect x="347.42857142857144" y="245.94285714285712" width="21.714285714285715" height="15.371428571428572" fill="#ffffff"></rect><rect x="390.8571428571429" y="245.94285714285712" width="21.714285714285715" height="15.371428571428572" fill="#ffffff"></rect><rect x="412.57142857142856" y="245.94285714285712" width="21.714285714285715" height="15.371428571428572" fill="#ffffff"></rect><rect x="434.28571428571433" y="245.94285714285712" width="21.714285714285715" height="15.371428571428572" fill="#ffffff"></rect><rect x="521.1428571428571" y="245.94285714285712" width="21.714285714285715" height="15.371428571428572" fill="#ffffff"></rect><rect x="564.5714285714286" y="245.94285714285712" width="21.714285714285715" height="15.371428571428572" fill="#ffffff"></rect><rect x="629.7142857142857" y="245.94285714285712" width="21.714285714285715" height="15.371428571428572" fill="#ffffff"></rect><rect x="651.4285714285714" y="245.94285714285712" width="21.714285714285715" height="15.371428571428572" fill="#ffffff"></rect><rect x="65.14285714285714" y="261.31428571428575" width="21.714285714285715" height="15.371428571428572" fill="#ffffff"></rect><rect x="108.57142857142857" y="261.31428571428575" width="21.714285714285715" height="15.371428571428572" fill="#ffffff"></rect><rect x="130.28571428571428" y="261.31428571428575" width="21.714285714285715" height="15.371428571428572" fill="#ffffff"></rect><rect x="195.42857142857142" y="261.31428571428575" width="21.714285714285715" height="15.371428571428572" fill="#ffffff"></rect><rect x="217.14285714285714" y="261.31428571428575" width="21.714285714285715" height="15.371428571428572" fill="#ffffff"></rect><rect x="282.28571428571433" y="261.31428571428575" width="21.714285714285715" height="15.371428571428572" fill="#ffffff"></rect><rect x="304" y="261.31428571428575" width="21.714285714285715" height="15.371428571428572" fill="#ffffff"></rect><rect x="325.71428571428567" y="261.31428571428575" width="21.714285714285715" height="15.371428571428572" fill="#ffffff"></rect><rect x="412.57142857142856" y="261.31428571428575" width="21.714285714285715" height="15.371428571428572" fill="#ffffff"></rect><rect x="521.1428571428571" y="261.31428571428575" width="21.714285714285715" height="15.371428571428572" fill="#ffffff"></rect><rect x="542.8571428571429" y="261.31428571428575" width="21.714285714285715" height="15.371428571428572" fill="#ffffff"></rect><rect x="586.2857142857142" y="261.31428571428575" width="21.714285714285715" height="15.371428571428572" fill="#ffffff"></rect><rect x="608" y="261.31428571428575" width="21.714285714285715" height="15.371428571428572" fill="#ffffff"></rect><rect x="629.7142857142857" y="261.31428571428575" width="21.714285714285715" height="15.371428571428572" fill="#ffffff"></rect><rect x="673.1428571428571" y="261.31428571428575" width="21.714285714285715" height="15.371428571428572" fill="#ffffff"></rect><rect x="65.14285714285714" y="276.6857142857143" width="21.714285714285715" height="15.371428571428572" fill="#ffffff"></rect><rect x="108.57142857142857" y="276.6857142857143" width="21.714285714285715" height="15.371428571428572" fill="#ffffff"></rect><rect x="130.28571428571428" y="276.6857142857143" width="21.714285714285715" height="15.371428571428572" fill="#ffffff"></rect><rect x="217.14285714285714" y="276.6857142857143" width="21.714285714285715" height="15.371428571428572" fill="#ffffff"></rect><rect x="260.57142857142856" y="276.6857142857143" width="21.714285714285715" height="15.371428571428572" fill="#ffffff"></rect><rect x="282.28571428571433" y="276.6857142857143" width="21.714285714285715" height="15.371428571428572" fill="#ffffff"></rect><rect x="325.71428571428567" y="276.6857142857143" width="21.714285714285715" height="15.371428571428572" fill="#ffffff"></rect><rect x="347.42857142857144" y="276.6857142857143" width="21.714285714285715" height="15.371428571428572" fill="#ffffff"></rect><rect x="412.57142857142856" y="276.6857142857143" width="21.714285714285715" height="15.371428571428572" fill="#ffffff"></rect><rect x="456" y="276.6857142857143" width="21.714285714285715" height="15.371428571428572" fill="#ffffff"></rect><rect x="477.7142857142858" y="276.6857142857143" width="21.714285714285715" height="15.371428571428572" fill="#ffffff"></rect><rect x="521.1428571428571" y="276.6857142857143" width="21.714285714285715" height="15.371428571428572" fill="#ffffff"></rect><rect x="542.8571428571429" y="276.6857142857143" width="21.714285714285715" height="15.371428571428572" fill="#ffffff"></rect><rect x="586.2857142857142" y="276.6857142857143" width="21.714285714285715" height="15.371428571428572" fill="#ffffff"></rect><rect x="629.7142857142857" y="276.6857142857143" width="21.714285714285715" height="15.371428571428572" fill="#ffffff"></rect><rect x="651.4285714285714" y="276.6857142857143" width="21.714285714285715" height="15.371428571428572" fill="#ffffff"></rect><rect x="65.14285714285714" y="292.0571428571429" width="21.714285714285715" height="15.371428571428572" fill="#ffffff"></rect><rect x="86.85714285714286" y="292.0571428571429" width="21.714285714285715" height="15.371428571428572" fill="#ffffff"></rect><rect x="108.57142857142857" y="292.0571428571429" width="21.714285714285715" height="15.371428571428572" fill="#ffffff"></rect><rect x="173.71428571428572" y="292.0571428571429" width="21.714285714285715" height="15.371428571428572" fill="#ffffff"></rect><rect x="195.42857142857142" y="292.0571428571429" width="21.714285714285715" height="15.371428571428572" fill="#ffffff"></rect><rect x="217.14285714285714" y="292.0571428571429" width="21.714285714285715" height="15.371428571428572" fill="#ffffff"></rect><rect x="282.28571428571433" y="292.0571428571429" width="21.714285714285715" height="15.371428571428572" fill="#ffffff"></rect><rect x="304" y="292.0571428571429" width="21.714285714285715" height="15.371428571428572" fill="#ffffff"></rect><rect x="325.71428571428567" y="292.0571428571429" width="21.714285714285715" height="15.371428571428572" fill="#ffffff"></rect><rect x="390.8571428571429" y="292.0571428571429" width="21.714285714285715" height="15.371428571428572" fill="#ffffff"></rect><rect x="412.57142857142856" y="292.0571428571429" width="21.714285714285715" height="15.371428571428572" fill="#ffffff"></rect><rect x="434.28571428571433" y="292.0571428571429" width="21.714285714285715" height="15.371428571428572" fill="#ffffff"></rect><rect x="456" y="292.0571428571429" width="21.714285714285715" height="15.371428571428572" fill="#ffffff"></rect><rect x="477.7142857142858" y="292.0571428571429" width="21.714285714285715" height="15.371428571428572" fill="#ffffff"></rect><rect x="586.2857142857142" y="292.0571428571429" width="21.714285714285715" height="15.371428571428572" fill="#ffffff"></rect><rect x="629.7142857142857" y="292.0571428571429" width="21.714285714285715" height="15.371428571428572" fill="#ffffff"></rect><rect x="651.4285714285714" y="292.0571428571429" width="21.714285714285715" height="15.371428571428572" fill="#ffffff"></rect><rect x="86.85714285714286" y="307.42857142857144" width="21.714285714285715" height="15.371428571428572" fill="#ffffff"></rect><rect x="130.28571428571428" y="307.42857142857144" width="21.714285714285715" height="15.371428571428572" fill="#ffffff"></rect><rect x="152" y="307.42857142857144" width="21.714285714285715" height="15.371428571428572" fill="#ffffff"></rect><rect x="173.71428571428572" y="307.42857142857144" width="21.714285714285715" height="15.371428571428572" fill="#ffffff"></rect><rect x="304" y="307.42857142857144" width="21.714285714285715" height="15.371428571428572" fill="#ffffff"></rect><rect x="325.71428571428567" y="307.42857142857144" width="21.714285714285715" height="15.371428571428572" fill="#ffffff"></rect><rect x="347.42857142857144" y="307.42857142857144" width="21.714285714285715" height="15.371428571428572" fill="#ffffff"></rect><rect x="369.1428571428571" y="307.42857142857144" width="21.714285714285715" height="15.371428571428572" fill="#ffffff"></rect><rect x="390.8571428571429" y="307.42857142857144" width="21.714285714285715" height="15.371428571428572" fill="#ffffff"></rect><rect x="412.57142857142856" y="307.42857142857144" width="21.714285714285715" height="15.371428571428572" fill="#ffffff"></rect><rect x="434.28571428571433" y="307.42857142857144" width="21.714285714285715" height="15.371428571428572" fill="#ffffff"></rect><rect x="456" y="307.42857142857144" width="21.714285714285715" height="15.371428571428572" fill="#ffffff"></rect><rect x="542.8571428571429" y="307.42857142857144" width="21.714285714285715" height="15.371428571428572" fill="#ffffff"></rect><rect x="564.5714285714286" y="307.42857142857144" width="21.714285714285715" height="15.371428571428572" fill="#ffffff"></rect><rect x="586.2857142857142" y="307.42857142857144" width="21.714285714285715" height="15.371428571428572" fill="#ffffff"></rect><rect x="629.7142857142857" y="307.42857142857144" width="21.714285714285715" height="15.371428571428572" fill="#ffffff"></rect><rect x="673.1428571428571" y="307.42857142857144" width="21.714285714285715" height="15.371428571428572" fill="#ffffff"></rect><rect x="65.14285714285714" y="322.8" width="21.714285714285715" height="15.371428571428572" fill="#ffffff"></rect><rect x="173.71428571428572" y="322.8" width="21.714285714285715" height="15.371428571428572" fill="#ffffff"></rect><rect x="195.42857142857142" y="322.8" width="21.714285714285715" height="15.371428571428572" fill="#ffffff"></rect><rect x="238.85714285714286" y="322.8" width="21.714285714285715" height="15.371428571428572" fill="#ffffff"></rect><rect x="282.28571428571433" y="322.8" width="21.714285714285715" height="15.371428571428572" fill="#ffffff"></rect><rect x="304" y="322.8" width="21.714285714285715" height="15.371428571428572" fill="#ffffff"></rect><rect x="369.1428571428571" y="322.8" width="21.714285714285715" height="15.371428571428572" fill="#ffffff"></rect><rect x="434.28571428571433" y="322.8" width="21.714285714285715" height="15.371428571428572" fill="#ffffff"></rect><rect x="477.7142857142858" y="322.8" width="21.714285714285715" height="15.371428571428572" fill="#ffffff"></rect><rect x="499.42857142857144" y="322.8" width="21.714285714285715" height="15.371428571428572" fill="#ffffff"></rect><rect x="521.1428571428571" y="322.8" width="21.714285714285715" height="15.371428571428572" fill="#ffffff"></rect><rect x="542.8571428571429" y="322.8" width="21.714285714285715" height="15.371428571428572" fill="#ffffff"></rect><rect x="586.2857142857142" y="322.8" width="21.714285714285715" height="15.371428571428572" fill="#ffffff"></rect><rect x="608" y="322.8" width="21.714285714285715" height="15.371428571428572" fill="#ffffff"></rect><rect x="65.14285714285714" y="338.1714285714286" width="21.714285714285715" height="15.371428571428572" fill="#ffffff"></rect><rect x="130.28571428571428" y="338.1714285714286" width="21.714285714285715" height="15.371428571428572" fill="#ffffff"></rect><rect x="152" y="338.1714285714286" width="21.714285714285715" height="15.371428571428572" fill="#ffffff"></rect><rect x="217.14285714285714" y="338.1714285714286" width="21.714285714285715" height="15.371428571428572" fill="#ffffff"></rect><rect x="238.85714285714286" y="338.1714285714286" width="21.714285714285715" height="15.371428571428572" fill="#ffffff"></rect><rect x="325.71428571428567" y="338.1714285714286" width="21.714285714285715" height="15.371428571428572" fill="#ffffff"></rect><rect x="369.1428571428571" y="338.1714285714286" width="21.714285714285715" height="15.371428571428572" fill="#ffffff"></rect><rect x="390.8571428571429" y="338.1714285714286" width="21.714285714285715" height="15.371428571428572" fill="#ffffff"></rect><rect x="412.57142857142856" y="338.1714285714286" width="21.714285714285715" height="15.371428571428572" fill="#ffffff"></rect><rect x="542.8571428571429" y="338.1714285714286" width="21.714285714285715" height="15.371428571428572" fill="#ffffff"></rect><rect x="564.5714285714286" y="338.1714285714286" width="21.714285714285715" height="15.371428571428572" fill="#ffffff"></rect><rect x="586.2857142857142" y="338.1714285714286" width="21.714285714285715" height="15.371428571428572" fill="#ffffff"></rect><rect x="651.4285714285714" y="338.1714285714286" width="21.714285714285715" height="15.371428571428572" fill="#ffffff"></rect><rect x="86.85714285714286" y="353.54285714285714" width="21.714285714285715" height="15.371428571428572" fill="#ffffff"></rect><rect x="108.57142857142857" y="353.54285714285714" width="21.714285714285715" height="15.371428571428572" fill="#ffffff"></rect><rect x="130.28571428571428" y="353.54285714285714" width="21.714285714285715" height="15.371428571428572" fill="#ffffff"></rect><rect x="173.71428571428572" y="353.54285714285714" width="21.714285714285715" height="15.371428571428572" fill="#ffffff"></rect><rect x="195.42857142857142" y="353.54285714285714" width="21.714285714285715" height="15.371428571428572" fill="#ffffff"></rect><rect x="238.85714285714286" y="353.54285714285714" width="21.714285714285715" height="15.371428571428572" fill="#ffffff"></rect><rect x="260.57142857142856" y="353.54285714285714" width="21.714285714285715" height="15.371428571428572" fill="#ffffff"></rect><rect x="412.57142857142856" y="353.54285714285714" width="21.714285714285715" height="15.371428571428572" fill="#ffffff"></rect><rect x="434.28571428571433" y="353.54285714285714" width="21.714285714285715" height="15.371428571428572" fill="#ffffff"></rect><rect x="456" y="353.54285714285714" width="21.714285714285715" height="15.371428571428572" fill="#ffffff"></rect><rect x="499.42857142857144" y="353.54285714285714" width="21.714285714285715" height="15.371428571428572" fill="#ffffff"></rect><rect x="521.1428571428571" y="353.54285714285714" width="21.714285714285715" height="15.371428571428572" fill="#ffffff"></rect><rect x="542.8571428571429" y="353.54285714285714" width="21.714285714285715" height="15.371428571428572" fill="#ffffff"></rect><rect x="564.5714285714286" y="353.54285714285714" width="21.714285714285715" height="15.371428571428572" fill="#ffffff"></rect><rect x="586.2857142857142" y="353.54285714285714" width="21.714285714285715" height="15.371428571428572" fill="#ffffff"></rect><rect x="629.7142857142857" y="353.54285714285714" width="21.714285714285715" height="15.371428571428572" fill="#ffffff"></rect><rect x="651.4285714285714" y="353.54285714285714" width="21.714285714285715" height="15.371428571428572" fill="#ffffff"></rect><rect x="673.1428571428571" y="353.54285714285714" width="21.714285714285715" height="15.371428571428572" fill="#ffffff"></rect><rect x="260.57142857142856" y="368.9142857142857" width="21.714285714285715" height="15.371428571428572" fill="#ffffff"></rect><rect x="282.28571428571433" y="368.9142857142857" width="21.714285714285715" height="15.371428571428572" fill="#ffffff"></rect><rect x="325.71428571428567" y="368.9142857142857" width="21.714285714285715" height="15.371428571428572" fill="#ffffff"></rect><rect x="477.7142857142858" y="368.9142857142857" width="21.714285714285715" height="15.371428571428572" fill="#ffffff"></rect><rect x="499.42857142857144" y="368.9142857142857" width="21.714285714285715" height="15.371428571428572" fill="#ffffff"></rect><rect x="586.2857142857142" y="368.9142857142857" width="21.714285714285715" height="15.371428571428572" fill="#ffffff"></rect><rect x="629.7142857142857" y="368.9142857142857" width="21.714285714285715" height="15.371428571428572" fill="#ffffff"></rect><rect x="65.14285714285714" y="384.2857142857143" width="21.714285714285715" height="15.371428571428572" fill="#ffffff"></rect><rect x="86.85714285714286" y="384.2857142857143" width="21.714285714285715" height="15.371428571428572" fill="#ffffff"></rect><rect x="108.57142857142857" y="384.2857142857143" width="21.714285714285715" height="15.371428571428572" fill="#ffffff"></rect><rect x="130.28571428571428" y="384.2857142857143" width="21.714285714285715" height="15.371428571428572" fill="#ffffff"></rect><rect x="152" y="384.2857142857143" width="21.714285714285715" height="15.371428571428572" fill="#ffffff"></rect><rect x="173.71428571428572" y="384.2857142857143" width="21.714285714285715" height="15.371428571428572" fill="#ffffff"></rect><rect x="195.42857142857142" y="384.2857142857143" width="21.714285714285715" height="15.371428571428572" fill="#ffffff"></rect><rect x="260.57142857142856" y="384.2857142857143" width="21.714285714285715" height="15.371428571428572" fill="#ffffff"></rect><rect x="282.28571428571433" y="384.2857142857143" width="21.714285714285715" height="15.371428571428572" fill="#ffffff"></rect><rect x="325.71428571428567" y="384.2857142857143" width="21.714285714285715" height="15.371428571428572" fill="#ffffff"></rect><rect x="347.42857142857144" y="384.2857142857143" width="21.714285714285715" height="15.371428571428572" fill="#ffffff"></rect><rect x="412.57142857142856" y="384.2857142857143" width="21.714285714285715" height="15.371428571428572" fill="#ffffff"></rect><rect x="434.28571428571433" y="384.2857142857143" width="21.714285714285715" height="15.371428571428572" fill="#ffffff"></rect><rect x="477.7142857142858" y="384.2857142857143" width="21.714285714285715" height="15.371428571428572" fill="#ffffff"></rect><rect x="499.42857142857144" y="384.2857142857143" width="21.714285714285715" height="15.371428571428572" fill="#ffffff"></rect><rect x="542.8571428571429" y="384.2857142857143" width="21.714285714285715" height="15.371428571428572" fill="#ffffff"></rect><rect x="586.2857142857142" y="384.2857142857143" width="21.714285714285715" height="15.371428571428572" fill="#ffffff"></rect><rect x="651.4285714285714" y="384.2857142857143" width="21.714285714285715" height="15.371428571428572" fill="#ffffff"></rect><rect x="65.14285714285714" y="399.65714285714284" width="21.714285714285715" height="15.371428571428572" fill="#ffffff"></rect><rect x="195.42857142857142" y="399.65714285714284" width="21.714285714285715" height="15.371428571428572" fill="#ffffff"></rect><rect x="304" y="399.65714285714284" width="21.714285714285715" height="15.371428571428572" fill="#ffffff"></rect><rect x="369.1428571428571" y="399.65714285714284" width="21.714285714285715" height="15.371428571428572" fill="#ffffff"></rect><rect x="412.57142857142856" y="399.65714285714284" width="21.714285714285715" height="15.371428571428572" fill="#ffffff"></rect><rect x="456" y="399.65714285714284" width="21.714285714285715" height="15.371428571428572" fill="#ffffff"></rect><rect x="477.7142857142858" y="399.65714285714284" width="21.714285714285715" height="15.371428571428572" fill="#ffffff"></rect><rect x="499.42857142857144" y="399.65714285714284" width="21.714285714285715" height="15.371428571428572" fill="#ffffff"></rect><rect x="586.2857142857142" y="399.65714285714284" width="21.714285714285715" height="15.371428571428572" fill="#ffffff"></rect><rect x="608" y="399.65714285714284" width="21.714285714285715" height="15.371428571428572" fill="#ffffff"></rect><rect x="629.7142857142857" y="399.65714285714284" width="21.714285714285715" height="15.371428571428572" fill="#ffffff"></rect><rect x="673.1428571428571" y="399.65714285714284" width="21.714285714285715" height="15.371428571428572" fill="#ffffff"></rect><rect x="65.14285714285714" y="415.0285714285714" width="21.714285714285715" height="15.371428571428572" fill="#ffffff"></rect><rect x="108.57142857142857" y="415.0285714285714" width="21.714285714285715" height="15.371428571428572" fill="#ffffff"></rect><rect x="130.28571428571428" y="415.0285714285714" width="21.714285714285715" height="15.371428571428572" fill="#ffffff"></rect><rect x="152" y="415.0285714285714" width="21.714285714285715" height="15.371428571428572" fill="#ffffff"></rect><rect x="195.42857142857142" y="415.0285714285714" width="21.714285714285715" height="15.371428571428572" fill="#ffffff"></rect><rect x="260.57142857142856" y="415.0285714285714" width="21.714285714285715" height="15.371428571428572" fill="#ffffff"></rect><rect x="282.28571428571433" y="415.0285714285714" width="21.714285714285715" height="15.371428571428572" fill="#ffffff"></rect><rect x="304" y="415.0285714285714" width="21.714285714285715" height="15.371428571428572" fill="#ffffff"></rect><rect x="347.42857142857144" y="415.0285714285714" width="21.714285714285715" height="15.371428571428572" fill="#ffffff"></rect><rect x="390.8571428571429" y="415.0285714285714" width="21.714285714285715" height="15.371428571428572" fill="#ffffff"></rect><rect x="412.57142857142856" y="415.0285714285714" width="21.714285714285715" height="15.371428571428572" fill="#ffffff"></rect><rect x="499.42857142857144" y="415.0285714285714" width="21.714285714285715" height="15.371428571428572" fill="#ffffff"></rect><rect x="521.1428571428571" y="415.0285714285714" width="21.714285714285715" height="15.371428571428572" fill="#ffffff"></rect><rect x="542.8571428571429" y="415.0285714285714" width="21.714285714285715" height="15.371428571428572" fill="#ffffff"></rect><rect x="564.5714285714286" y="415.0285714285714" width="21.714285714285715" height="15.371428571428572" fill="#ffffff"></rect><rect x="586.2857142857142" y="415.0285714285714" width="21.714285714285715" height="15.371428571428572" fill="#ffffff"></rect><rect x="629.7142857142857" y="415.0285714285714" width="21.714285714285715" height="15.371428571428572" fill="#ffffff"></rect><rect x="651.4285714285714" y="415.0285714285714" width="21.714285714285715" height="15.371428571428572" fill="#ffffff"></rect><rect x="673.1428571428571" y="415.0285714285714" width="21.714285714285715" height="15.371428571428572" fill="#ffffff"></rect><rect x="65.14285714285714" y="430.4" width="21.714285714285715" height="15.371428571428572" fill="#ffffff"></rect><rect x="108.57142857142857" y="430.4" width="21.714285714285715" height="15.371428571428572" fill="#ffffff"></rect><rect x="130.28571428571428" y="430.4" width="21.714285714285715" height="15.371428571428572" fill="#ffffff"></rect><rect x="152" y="430.4" width="21.714285714285715" height="15.371428571428572" fill="#ffffff"></rect><rect x="195.42857142857142" y="430.4" width="21.714285714285715" height="15.371428571428572" fill="#ffffff"></rect><rect x="238.85714285714286" y="430.4" width="21.714285714285715" height="15.371428571428572" fill="#ffffff"></rect><rect x="260.57142857142856" y="430.4" width="21.714285714285715" height="15.371428571428572" fill="#ffffff"></rect><rect x="282.28571428571433" y="430.4" width="21.714285714285715" height="15.371428571428572" fill="#ffffff"></rect><rect x="304" y="430.4" width="21.714285714285715" height="15.371428571428572" fill="#ffffff"></rect><rect x="369.1428571428571" y="430.4" width="21.714285714285715" height="15.371428571428572" fill="#ffffff"></rect><rect x="390.8571428571429" y="430.4" width="21.714285714285715" height="15.371428571428572" fill="#ffffff"></rect><rect x="412.57142857142856" y="430.4" width="21.714285714285715" height="15.371428571428572" fill="#ffffff"></rect><rect x="456" y="430.4" width="21.714285714285715" height="15.371428571428572" fill="#ffffff"></rect><rect x="499.42857142857144" y="430.4" width="21.714285714285715" height="15.371428571428572" fill="#ffffff"></rect><rect x="521.1428571428571" y="430.4" width="21.714285714285715" height="15.371428571428572" fill="#ffffff"></rect><rect x="564.5714285714286" y="430.4" width="21.714285714285715" height="15.371428571428572" fill="#ffffff"></rect><rect x="65.14285714285714" y="445.77142857142854" width="21.714285714285715" height="15.371428571428572" fill="#ffffff"></rect><rect x="108.57142857142857" y="445.77142857142854" width="21.714285714285715" height="15.371428571428572" fill="#ffffff"></rect><rect x="130.28571428571428" y="445.77142857142854" width="21.714285714285715" height="15.371428571428572" fill="#ffffff"></rect><rect x="152" y="445.77142857142854" width="21.714285714285715" height="15.371428571428572" fill="#ffffff"></rect><rect x="195.42857142857142" y="445.77142857142854" width="21.714285714285715" height="15.371428571428572" fill="#ffffff"></rect><rect x="238.85714285714286" y="445.77142857142854" width="21.714285714285715" height="15.371428571428572" fill="#ffffff"></rect><rect x="347.42857142857144" y="445.77142857142854" width="21.714285714285715" height="15.371428571428572" fill="#ffffff"></rect><rect x="390.8571428571429" y="445.77142857142854" width="21.714285714285715" height="15.371428571428572" fill="#ffffff"></rect><rect x="477.7142857142858" y="445.77142857142854" width="21.714285714285715" height="15.371428571428572" fill="#ffffff"></rect><rect x="499.42857142857144" y="445.77142857142854" width="21.714285714285715" height="15.371428571428572" fill="#ffffff"></rect><rect x="521.1428571428571" y="445.77142857142854" width="21.714285714285715" height="15.371428571428572" fill="#ffffff"></rect><rect x="542.8571428571429" y="445.77142857142854" width="21.714285714285715" height="15.371428571428572" fill="#ffffff"></rect><rect x="608" y="445.77142857142854" width="21.714285714285715" height="15.371428571428572" fill="#ffffff"></rect><rect x="629.7142857142857" y="445.77142857142854" width="21.714285714285715" height="15.371428571428572" fill="#ffffff"></rect><rect x="651.4285714285714" y="445.77142857142854" width="21.714285714285715" height="15.371428571428572" fill="#ffffff"></rect><rect x="673.1428571428571" y="445.77142857142854" width="21.714285714285715" height="15.371428571428572" fill="#ffffff"></rect><rect x="65.14285714285714" y="461.14285714285717" width="21.714285714285715" height="15.371428571428572" fill="#ffffff"></rect><rect x="195.42857142857142" y="461.14285714285717" width="21.714285714285715" height="15.371428571428572" fill="#ffffff"></rect><rect x="260.57142857142856" y="461.14285714285717" width="21.714285714285715" height="15.371428571428572" fill="#ffffff"></rect><rect x="325.71428571428567" y="461.14285714285717" width="21.714285714285715" height="15.371428571428572" fill="#ffffff"></rect><rect x="499.42857142857144" y="461.14285714285717" width="21.714285714285715" height="15.371428571428572" fill="#ffffff"></rect><rect x="542.8571428571429" y="461.14285714285717" width="21.714285714285715" height="15.371428571428572" fill="#ffffff"></rect><rect x="564.5714285714286" y="461.14285714285717" width="21.714285714285715" height="15.371428571428572" fill="#ffffff"></rect><rect x="586.2857142857142" y="461.14285714285717" width="21.714285714285715" height="15.371428571428572" fill="#ffffff"></rect><rect x="608" y="461.14285714285717" width="21.714285714285715" height="15.371428571428572" fill="#ffffff"></rect><rect x="629.7142857142857" y="461.14285714285717" width="21.714285714285715" height="15.371428571428572" fill="#ffffff"></rect><rect x="65.14285714285714" y="476.51428571428573" width="21.714285714285715" height="15.371428571428572" fill="#ffffff"></rect><rect x="86.85714285714286" y="476.51428571428573" width="21.714285714285715" height="15.371428571428572" fill="#ffffff"></rect><rect x="108.57142857142857" y="476.51428571428573" width="21.714285714285715" height="15.371428571428572" fill="#ffffff"></rect><rect x="130.28571428571428" y="476.51428571428573" width="21.714285714285715" height="15.371428571428572" fill="#ffffff"></rect><rect x="152" y="476.51428571428573" width="21.714285714285715" height="15.371428571428572" fill="#ffffff"></rect><rect x="173.71428571428572" y="476.51428571428573" width="21.714285714285715" height="15.371428571428572" fill="#ffffff"></rect><rect x="195.42857142857142" y="476.51428571428573" width="21.714285714285715" height="15.371428571428572" fill="#ffffff"></rect><rect x="304" y="476.51428571428573" width="21.714285714285715" height="15.371428571428572" fill="#ffffff"></rect><rect x="347.42857142857144" y="476.51428571428573" width="21.714285714285715" height="15.371428571428572" fill="#ffffff"></rect><rect x="369.1428571428571" y="476.51428571428573" width="21.714285714285715" height="15.371428571428572" fill="#ffffff"></rect><rect x="412.57142857142856" y="476.51428571428573" width="21.714285714285715" height="15.371428571428572" fill="#ffffff"></rect><rect x="456" y="476.51428571428573" width="21.714285714285715" height="15.371428571428572" fill="#ffffff"></rect><rect x="499.42857142857144" y="476.51428571428573" width="21.714285714285715" height="15.371428571428572" fill="#ffffff"></rect><rect x="586.2857142857142" y="476.51428571428573" width="21.714285714285715" height="15.371428571428572" fill="#ffffff"></rect><rect x="629.7142857142857" y="476.51428571428573" width="21.714285714285715" height="15.371428571428572" fill="#ffffff"></rect><rect x="651.4285714285714" y="476.51428571428573" width="21.714285714285715" height="15.371428571428572" fill="#ffffff"></rect></g></g></svg>
